<svg viewBox="0 0 178.79 174.29" xmlns="http://www.w3.org/2000/svg"><path d="m25.53 88.91a61.76 61.76 0 0 0 123.51 0" fill="none" stroke="#58c1dd" stroke-miterlimit="10" stroke-width="31.21"/><path d="m25.53 85.42a61.76 61.76 0 0 1 123.51 0" fill="none" stroke="#343434" stroke-miterlimit="10" stroke-width="31.21"/><path d="m102 74.93a31.89 31.89 0 0 1 -1.13 5.77q-2.87 4.3.13 9.86 3.57 10.45-5.72 19.72-8.44 10.8-14.7 9.27-1.91-.72-3.55 2.76l8.29 7 4.24 1.12c9 .1 6.27-2.66 15.09 1-2.79 1-16.1 6.95-32.22 1 7.13-2.7 3.31-1.14 10.31-1.74l-6.69-6.21q-2.81-.74-4.24-4.44-9.75 7.27-14 7.3-3.08.64.19-4.74a47.6 47.6 0 0 0 -5.81.79l-16.83 11.24q-2 2.52-8.57 1.19l23.07-17.16q5.24-10.17 18.34-20.91 2.7-5.3 14.5-15.57 2.37-6.54 4.53-8.88 1.78-4.8 14-3.2c2.54-1.88 4.79-2.55 6.76-2l-6 6.86zm-8.16-2.2a1.84 1.84 0 0 0 -2.88-.8 4.33 4.33 0 0 0 -1.21 2.22" fill="#343434" fill-rule="evenodd"/></svg>