<svg id="Layer_1" data-name="Layer 1" xmlns="http://www.w3.org/2000/svg" viewBox="0 0 742.75 209.48"><defs><style>.cls-1{font-size:81px;font-family:MicrosoftSansSerif, Microsoft Sans Serif;letter-spacing:0.04em;}.cls-1,.cls-4{fill:#343434;}.cls-2,.cls-3{fill:none;stroke-miterlimit:10;stroke-width:26.49px;}.cls-2{stroke:#58c1dd;}.cls-3{stroke:#343434;}.cls-4{fill-rule:evenodd;}</style></defs><text class="cls-1" transform="translate(178.03 132.87)">Starling Skills</text><path class="cls-2" d="M33.87,106.05a52.42,52.42,0,0,0,104.83,0"/><path class="cls-3" d="M33.87,103.09a52.42,52.42,0,0,1,104.83,0"/><path class="cls-4" d="M98.76,94.18a27.58,27.58,0,0,1-1,4.9q-2.42,3.66.17,8.37,3,8.88-4.85,16.74-7.17,9.17-12.47,7.87c-1.08-.41-2.09.38-3,2.34l7,5.94,3.61.95c7.67.09,5.31-2.25,12.8.83-2.36.82-13.66,5.9-27.35.87,6.06-2.29,2.81-1,8.76-1.48l-5.68-5.27q-2.39-.62-3.6-3.77-8.28,6.18-11.89,6.2-2.61.56.17-4a41.17,41.17,0,0,0-4.94.67l-14.31,9.54q-1.66,2.13-7.28,1L54.52,131.3q4.45-8.63,15.57-17.74,2.3-4.5,12.3-13.22,2-5.55,3.85-7.54,1.52-4.06,11.89-2.72,3.23-2.39,5.73-1.71l-5.1,5.81Zm-6.93-1.86a1.57,1.57,0,0,0-2.45-.68,3.65,3.65,0,0,0-1,1.88"/></svg>